<svg width="100" height="102" viewBox="0 0 400 408" fill="none" xmlns="http://www.w3.org/2000/svg">
<g clip-path="url(#clip0_81_1677)">
<path d="M184.533 19.0667C181.467 22.9334 177.333 28.8001 175.2 32.1334C171.867 37.8667 171.067 38.4001 164.933 39.2001C153.867 40.6667 127.333 50.1334 112.267 58.0001C66 82 35.4667 122.933 24.5333 175.333C19.4667 199.867 22.4 236.133 31.4667 261.6C52.1333 319.6 102.133 359.733 167.333 370.933C210.667 378.4 260.533 366.133 296.267 339.333C338.8 307.333 363.2 258.133 363.067 204.667C362.933 142 326.4 83.2 270.533 55.6001C254.533 47.7334 235.733 41.6001 221.6 39.6001C210.8 38.1334 210.267 37.8667 208 33.3334C205.2 27.8667 193.333 13.0667 191.333 12.5334C190.667 12.2667 187.467 15.2001 184.533 19.0667ZM199.2 33.0667C208.133 46.6667 210.933 54.5334 211.733 69.4667C212.4 83.7334 211.067 89.6 205.467 97.6C201.733 102.8 194.667 107.867 194.667 105.333C194.667 104.533 197.333 101.067 200.667 97.4667C206.133 91.7334 211.6 81.8667 210.267 80.5334C210 80.1334 208.933 81.7334 208 84C207.067 86.2667 203.333 90.6667 199.867 93.8667L193.333 99.7334V124.667V149.6L198.933 141.2C202.133 136.533 210.133 127.067 217.067 120.267C228.267 109.2 231.467 104.8 224.533 110C223.2 111.067 221.467 112 220.8 112C218.533 112 223.2 107.867 229.067 104.267C236.267 100.133 234.533 98.6667 226.933 102.533C221.6 105.2 214.667 112.267 214.667 114.933C214.667 116.8 205.733 126.667 204.933 125.733C203.6 124.533 207.733 113.067 211.333 108C219.467 96.1334 232.933 90.5334 255.067 89.6C263.6 89.3334 270.667 89.4667 270.667 90C270.667 91.4667 261.467 114.4 258.667 120C255.733 125.733 248.133 133.867 245.333 134.267C237.733 135.2 226.267 138.533 228.133 139.2C229.333 139.733 233.867 138.933 238.133 137.467C245.733 134.933 245.867 134.933 242.933 137.467C238 141.333 220 146 220 143.333C220 139.6 239.067 116.933 249.333 108.267C254.4 104.133 258.267 100.533 258 100.267C257.2 99.4667 248.933 104.133 240.667 110C229.6 117.867 210.133 138.4 200.933 152L193.333 163.333V194.667C193.467 224.533 193.6 225.867 195.733 222.667C201.2 214.667 222.267 191.333 228.933 185.867C242.8 174.667 260.533 166.267 281.333 161.2C297.067 157.333 294.667 155.867 272.8 155.867C259.6 155.867 254.667 156.4 247.867 158.667C237.467 162.133 228.133 167.867 222.533 174.4C218.133 179.333 212 191.067 212 194.667C212 195.733 209.867 199.067 207.333 202L202.8 207.333L202.667 202.533C202.4 175.867 220.133 154.667 248.667 147.333C254.533 145.867 263.867 145.333 284.133 145.333H311.733L316 141.2C319.467 137.733 320.8 137.2 324.4 137.867C333.333 139.6 336.667 150.533 329.867 155.867C325.2 159.6 319.733 159.467 315.867 155.6C314 153.733 311.2 152.533 308.933 152.533C305.6 152.667 304.8 153.733 299.467 166.933C291.467 186.4 285.067 197.467 276.267 206.8C266.267 217.333 258 220.4 239.733 220.533C230.933 220.667 227.2 221.067 228.133 222C230.533 224.4 249.333 223.333 257.333 220.267C264.267 217.6 264.533 217.6 261.333 220C254.133 225.6 236.533 229.067 225.6 227.067L219.733 226L226.8 216.667C235.067 205.6 249.867 190.8 261.333 182.267C270.667 175.2 270.133 174.533 258.8 179.2C236.8 188.133 217.6 205.867 200.8 232.533L193.333 244.4V284.267V324H196.8C198.8 324 201.867 325.6 204.133 327.867C209.6 333.467 209.467 340.133 203.733 345.867C200 349.6 199.333 351.067 199.733 355.733C200.133 361.2 200 361.333 196.133 361.333C192.133 361.333 192 361.067 192 355.6C192 350.8 191.333 349.333 188 346.933C183.467 343.6 181.733 337.2 184 331.467C184.933 329.067 185.467 313.067 185.467 287.6L185.6 247.6L173.2 235.2C165.2 227.2 159.067 222.133 156 221.2C148.267 218.667 141.467 214.8 135.867 209.6C129.467 204 118.667 190.267 118.667 188C118.667 186.8 122.4 186.533 132.4 186.933C143.467 187.333 147.333 188.133 153.333 190.8C165.467 196.4 172.4 204.933 174.133 216.133L175.067 222L171.067 218.267C166.8 214.267 165.333 213.733 165.333 216.267C165.333 217.867 183.867 237.333 185.333 237.333C185.733 237.333 185.867 228.8 185.733 218.4L185.467 199.333L181.467 198.133C175.333 196.4 171.733 191.6 161.2 171.333C148.667 147.2 148 146.133 141.067 144.133C132.8 141.6 126.933 138.4 118.8 131.867L111.733 126L112.267 111.333C113.067 93.8667 116.4 80.6667 119.733 82C127.467 84.8 145.6 96.6667 153.467 103.733C166.4 115.6 171.2 125.6 171.6 141.6C171.867 150.267 171.467 154.667 169.867 158.4C166.8 165.2 165.6 160.533 168.533 153.2C171.867 145.067 171.067 144.133 166.667 151.2L162.533 157.6L170 171.733C177.333 185.467 181.2 190.667 184.533 190.667C185.6 190.667 185.867 178.667 185.733 145.733L185.333 100.667L180.533 97.3334C177.867 95.4667 174 91.6 171.867 88.6667C169.733 85.8667 168 84.1334 168 84.8C168 86.8 172 92.2667 178.4 98.9334C185.333 106.133 185.067 108.8 178 103.467C172.667 99.3334 167.867 90.9334 167.333 84.4C167.067 81.8667 166.533 78.2667 166.133 76.2667C165.733 74.2667 165.867 70.5334 166.533 68.0001L167.6 63.3334L169.2 69.3334C171.6 77.7334 174.133 82.1334 180.267 88.8C183.6 92.4 186.8 94.6667 188.667 94.6667C191.467 94.6667 191.733 94 192.267 84.9334C192.667 76.1334 193.2 74.5334 199.067 65.4667C202.667 60.1334 205.2 55.4667 204.8 55.0667C203.467 53.7334 192.4 65.3334 189.6 71.0667C188 74.2667 186.667 79.4667 186.667 82.5334C186.667 85.4667 186.133 88 185.467 88C181.6 88 170.667 65.2001 170.667 57.3334C170.667 50.1334 188.667 21.3334 192 23.3334C192.667 23.7334 195.867 28.1334 199.2 33.0667ZM168.4 44.8001C168.8 45.3334 168.667 46.6667 168 47.8667C167.467 49.0667 166.533 52.8001 166 56.0001C165.467 59.2001 164.133 63.6001 163.067 65.8667C158.267 75.2001 164 94.5334 174.933 105.6L180.933 111.6L181.2 133.6C181.467 155.467 181.467 155.733 178 159.733C176.133 161.867 174.667 164.4 174.667 165.333C174.667 166.133 174 166.4 173.2 166C172.4 165.467 172.267 164.133 172.667 162.8C173.6 160.533 175.733 149.6 176.933 141.067C177.733 135.067 174.4 122.933 169.733 115.467C165.067 107.867 154 96.8 145.333 90.9334C132.8 82.4 121.467 77.0667 118 77.8667C112.133 79.3334 107.867 93.3334 106.4 116.533L106 121.733L100.4 116.933C91.2 109.333 80.1333 109.333 71.4667 117.067C68.1333 120.133 64 129.067 64 133.733C64 138.933 68.2667 146.8 73.8667 151.733L78.6667 155.867V173.867C78.6667 192.267 79.4667 196.533 83.4667 200.533C85.6 202.8 85.4667 202.8 81.2 202.133C78.6667 201.733 73.7333 201.067 70 200.667C59.7333 199.333 59.2 198 66.1333 191.467C73.3333 184.4 74 178.933 68.2667 172.267C61.4667 164.133 51.6 164.533 45.4667 173.067C42.1333 177.733 41.8667 182.667 44.6667 188C46.6667 191.867 46.6667 192 42.2667 193.867C34.9333 196.933 31.4667 203.067 31.8667 212.267C32 216.667 40.1333 225.333 44 225.333C47.0667 225.333 47.3333 227.6 44.6667 231.2C43.6 232.667 42.6667 236.267 42.6667 239.333C42.6667 243.6 43.4667 245.6 46.2667 248.267C48.4 250.133 51.3333 252.133 53.0667 252.667C55.2 253.333 55.8667 254.267 55.3333 255.867C54.9333 257.2 55.8667 259.733 57.3333 261.733C60 265.067 60 265.467 58 269.2C53.6 277.733 56.6667 286.8 65.4667 291.467L69.4667 293.467L66.8 296.933C64.1333 300.133 64.1333 300.533 66.1333 304C69.6 309.867 74.6667 312 84.5333 312C94.5333 312 94.2667 311.733 95.2 323.2C95.8667 332.4 99.2 337.733 104.533 338.4C110.8 339.2 111.867 336 112 316.533V299.067L108 295.6C104.4 292.267 104 291.2 104 283.733C104 272.933 101.067 269.333 92.1333 269.333C84.9333 269.2 71.6 262.133 70.9333 257.867C70.6667 256.533 69.2 254.133 67.8667 252.533C64.9333 249.333 65.7333 248 70.6667 248C72.8 248 76.2667 250 80 253.467C90.1333 262.667 91.4667 263.333 101.467 262.933C106.4 262.667 110.8 263.067 111.2 263.733C111.6 264.4 111.067 266.8 110 269.067C106.4 276.133 107.067 282 112.133 288.933L116.533 295.2L116.667 319.867L116.933 344.4L120.533 347.6C125.6 351.867 130.133 351.6 132.667 346.667C134.4 343.2 135.2 342.8 139.067 343.467C146.267 344.8 146.667 345.067 146.667 350.267C146.667 353.733 147.733 356.267 150.267 358.933C152.267 360.933 153.2 362.667 152.4 362.667C149.6 362.667 132.667 357.067 129.733 355.2C128.133 354.133 123.333 352 119.2 350.533C97.0667 342.267 69.7333 319.2 54.4 296C36.9333 269.467 28.4 242.933 27.2 211.067C25.4667 165.733 43.0667 122 75.7333 90.4C98.6667 68.2667 122.533 55.2001 155.333 46.6667C166 43.8667 167.2 43.7334 168.4 44.8001ZM230.933 46.2667C232.133 46.9334 235.867 48.0001 244.4 50.0001C250.533 51.4667 271.2 61.2001 281.333 67.4667C326.8 95.6 355.333 144.4 358.267 198.8C360.533 242.533 342.8 288.267 311.333 319.2C297.333 333.067 289.733 338.8 276 346.4C266.533 351.6 248 359.333 248 358C248 357.733 249.467 355.867 251.333 353.867C254.267 350.8 254.667 349.067 254.933 338.133L255.333 326L277.333 325.333C297.2 324.667 299.733 324.4 304.133 321.6C311.867 316.933 313.333 313.467 314 299.733C314.667 286.533 315.6 284.667 324.8 278.4C333.333 272.533 334.8 263.2 328.267 256.667C319.6 248 307.467 252.933 305.733 266C305.333 268.8 303.333 273.467 301.2 276.4C297.733 281.2 297.333 282.8 297.333 291.6C297.333 305.2 296.4 306.667 287.2 306.667C283.067 306.667 280 306.267 280.267 305.6C280.533 305.067 281.6 303.067 282.533 301.067C284.133 297.867 284 297.2 281.467 293.867C277.867 289.2 277.867 288.667 282.667 286.667C287.333 284.667 291.467 279.6 292.667 273.867C293.333 271.333 299.6 264 310.933 252.533C327.6 235.733 328.667 234.933 334.933 234.133C339.733 233.467 342.8 232 346.133 228.933C350.267 225.2 350.933 223.733 350.933 218.4C351.067 210.667 348.267 206 341.6 202.933C338.933 201.733 336.4 200.667 336.133 200.4C335.867 200.267 337.467 198.267 339.733 196C343.467 192.4 346.667 185.067 346.667 180.267C346.667 176.133 340.933 168 336 164.933C331.2 162.133 330.8 161.6 332.667 160C340 153.867 340 144 332.533 137.467C326.8 132.4 321.067 132.133 314.667 136.533C310.133 139.467 308.933 139.6 278.267 140.267L246.667 140.933L253.2 134.533C256.933 130.933 261.2 125.6 262.667 122.533C268.133 111.867 274.667 92.9334 273.867 90.4C271.867 84 253.067 82 237.333 86.5334C220 91.4667 210.8 98 204.8 109.867C201.2 116.8 200.667 119.867 201.6 126C201.867 127.467 201.467 128.933 200.667 129.333C199.867 129.733 199.2 126.133 198.933 120.133L198.533 110.267L204.4 104.133C210.267 98 213.333 92 216 82C218 74.1334 217.6 66.9334 214.667 55.3334C213.2 49.6001 212 44.6667 212 44.2667C212 43.4667 229.333 45.2001 230.933 46.2667ZM98.2667 121.6C104 127.333 105.2 133.733 101.867 140.667C100.533 143.467 97.8667 146.667 95.7333 147.867L92 150V170.933V191.733L122.267 221.333L152.533 250.8L162.933 250.4L173.333 250V305.067V360.133L169.733 359.733L166 359.333V308.933V258.667H129.333H92.5333L84.6667 250.667C77.4667 243.333 76.2667 242.667 71.0667 242.667C67.0667 242.667 64.5333 243.467 62.6667 245.333C56.9333 251.067 46.6667 246.8 46.6667 238.667C46.6667 234.133 51.0667 229.333 55.4667 229.333C57.0667 229.333 59.8667 230.533 61.7333 232C64.1333 233.867 67.0667 234.667 72.2667 234.667C79.2 234.667 79.6 234.8 87.3333 242.667L95.2 250.667H118.267H141.333L112.667 222.533L84 194.267V172.533V150.667L80.8 149.867C79.0667 149.467 76 147.333 74 145.333C69.2 140.4 67.8667 129.867 71.2 124.667C77.6 114.8 90.1333 113.467 98.2667 121.6ZM125.867 142.533C129.467 144.8 135.2 147.467 138.533 148.667C144.133 150.533 145.2 151.467 150.8 161.733C154.267 167.733 156.8 173.067 156.533 173.467C155.6 175.067 141.867 171.733 135.467 168.267C129.467 164.933 120 155.6 120 152.933C120 152.267 122.533 153.867 125.467 156.667C133.2 163.6 146.267 169.067 148 166.133C148.4 165.467 145.6 164 141.867 162.8C134.8 160.4 123.333 154.267 122 152C121.467 151.2 120.667 150.933 120.133 151.2C118.8 152.133 113.867 142 112.667 136L111.733 131.333L115.467 134.8C117.6 136.8 122.267 140.267 125.867 142.533ZM218.667 143.333C218.667 144.4 220.667 145.6 223.733 146C226.4 146.533 229.2 147.067 229.733 147.2C230.4 147.333 228.8 148.933 226.267 150.667C214.667 159.067 207.6 167.333 201.867 179.333L199.333 184.667L198.667 178C198.267 174.267 198.4 169.333 198.933 166.8C199.733 162.533 206.4 151.733 213.067 143.733C216.267 140 218.667 139.867 218.667 143.333ZM113.067 149.333C122.4 166.4 136.533 175.867 153.333 176.533C157.2 176.667 158.4 177.467 160.933 182C165.467 190 164.933 190.933 157.467 187.333C142.933 180 120.133 179.6 116.133 186.8C114.4 189.867 114.667 190.667 119.2 197.6C124.4 205.467 127.6 217.467 123.867 215.333C120.133 213.067 99.7333 192.533 98.1333 189.333C96.9333 187.067 96.4 180.8 96.6667 170L96.9333 154L101.867 148.8C104.533 145.867 106.667 142.933 106.667 142.4C106.667 139.467 109.067 142.133 113.067 149.333ZM315.067 160.533C317.867 162.667 318 164.533 315.2 166.8C311.733 169.733 308 178.267 308 183.6C308 188.4 306.533 190 278.8 217.6C262.8 233.6 249.333 246.667 248.933 246.667C248.533 246.667 246.4 244.8 244.267 242.667C241.6 240 238.8 238.667 236.267 238.667C231.333 238.667 224.8 244.4 226 247.867C226.667 249.867 225.733 250.533 220.667 251.867C217.333 252.667 214.267 254.267 213.867 255.333C212.933 257.6 208.533 258 207.333 255.867C206.8 255.067 204.8 254.933 202.533 255.333C198.8 256.133 198.667 256 198.667 251.2C198.667 248.133 200.267 243.467 202.8 238.8C207.733 230 220.267 213.067 221.067 214C221.467 214.4 220.933 217.067 220 220.133C218.267 225.467 218.267 225.733 221.333 228.267C224.267 230.667 226.133 230.933 237.333 230.4C248 229.867 251.467 229.067 258.667 225.6C277.867 216.4 291.467 200.133 301.867 174C307.867 158.667 309.867 156.667 315.067 160.533ZM258.667 162C258.667 162.267 254.933 164.4 250.4 166.667C239.6 171.867 233.333 175.6 229.867 178.8C228.4 180.133 226.267 181.333 225.333 181.333C221.867 181.333 235.067 169.467 241.867 166.533C250.267 162.933 258.667 160.667 258.667 162ZM184 164.667C184 165.733 182.8 166.667 181.333 166.667C179.867 166.667 178.667 165.733 178.667 164.667C178.667 163.6 179.867 162.667 181.333 162.667C182.8 162.667 184 163.6 184 164.667ZM333.333 168.667C338.533 171.333 341.333 175.733 341.333 181.067C341.333 190.533 333.867 197.067 324.8 195.6C320.4 194.933 319.333 195.867 284.667 229.733L249.067 264.533L236.533 264.133L224 263.733V290.667V317.6L230.533 316.667C236.133 315.867 237.333 316.133 238.4 318.267C239.2 319.733 239.2 321.867 238.533 323.733C237.467 326.667 236.8 326.8 230.667 326L224 325.067V341.733C224 355.733 223.6 358.533 221.867 359.2C216.267 361.333 216.4 362.267 216.533 308L216.667 256H232H247.333L280.8 222.533L314.267 189.067L313.733 183.333C312.933 176.533 314.8 172.667 320.4 169.333C325.467 166.133 328.267 166 333.333 168.667ZM178.667 170.8C179.467 172.267 180 174.533 179.733 175.733C179.333 177.467 178.667 176.933 176.933 173.733C174.267 168.8 174.133 168 176 168C176.667 168 177.867 169.2 178.667 170.8ZM63.6 173.6C67.6 178.133 68.2667 181.067 66 185.333C62.4 192.4 52.2667 192.267 48.6667 185.2C46.2667 180.667 46.9333 177.067 51.0667 173.333C54.8 169.733 60.2667 170 63.6 173.6ZM57.0667 201.333C60.8 204.933 61.8667 205.333 70.2667 205.333H79.3333L92.1333 218.133C99.2 225.2 106.4 231.6 108.133 232.533C114.267 235.6 111.867 243.467 105.067 242.4C103.467 242.133 101.333 240.533 100.533 238.8C99.6 237.067 93.8667 230.667 87.8667 224.533L76.6667 213.333H68.9333C62 213.333 60.4 213.867 56.4 217.333C50.4 222.667 45.0667 222.667 39.8667 217.467C34.6667 212.133 34.6667 206.533 39.8667 201.2C45.3333 195.867 51.7333 195.867 57.0667 201.333ZM328 202.667C328 203.2 326.533 204.667 324.8 205.733C322.933 207.067 320.667 210.667 319.333 214.533C316.8 222.267 314 225.2 311.733 222.933C309.2 220.4 304.267 221.067 301.067 224.267C298.267 227.067 298.267 227.2 300.533 231.2L302.933 235.2L295.2 242.533C288.133 249.467 287.6 249.733 286.533 247.067C286 245.6 284.933 243.867 284.133 243.333C283.333 242.933 282.667 241.733 282.667 240.8C282.667 238.8 319.2 202.4 322.4 201.2C324.933 200.267 328 201.067 328 202.667ZM178.267 202.4C180 203.467 180.667 206.533 180.133 211.333C180 213.2 179.2 212.267 177.333 208.133C175.867 204.933 174.667 202.133 174.667 201.867C174.667 201.067 176.533 201.333 178.267 202.4ZM344 210.4C351.067 219.333 343.867 230.133 331.733 229.067C328.8 228.667 324.933 231.867 308.133 248.533C291.867 264.667 288 269.2 288 272.133C288 276.667 283.2 282.267 278.667 283.333C273.867 284.4 267.2 279.867 266 274.8C264.267 266.933 272.267 258.8 279.333 261.333C281.467 262.133 285.867 258.533 302.933 242.133C322.533 223.467 324 221.733 324 217.2C324 206.8 337.467 202.133 344 210.4ZM132.8 212C137.467 217.2 151.6 225.333 156 225.333C157.2 225.333 159.867 227.067 162 229.333L165.867 233.333H159.6C148.533 233.333 138.533 227.2 131.467 216C128.267 210.933 126.4 206.667 127.333 206.667C127.733 206.667 130.133 209.067 132.8 212ZM84.5333 228.267C92.9333 236.667 97.4667 242.667 95.3333 242.667C95.0667 242.667 91.8667 240 88.2667 236.8C82.8 232 80.4 230.933 74.5333 230.133C66.5333 229.2 58.6667 225.6 58.6667 223.067C58.6667 220.533 62.8 218.8 69.0667 218.667C74.5333 218.667 75.4667 219.2 84.5333 228.267ZM310.667 228C310.667 230.133 309.733 230.667 306.667 230.667C303.6 230.667 302.667 230.133 302.667 228C302.667 225.867 303.6 225.333 306.667 225.333C309.733 225.333 310.667 225.867 310.667 228ZM122.4 239.067C124.8 241.467 126.267 243.867 125.867 244.4C125.333 244.933 122.533 245.333 119.6 245.333C114.8 245.333 114.4 245.067 115.2 242.267C115.6 240.667 116 238.267 116 236.933C116 233.6 117.6 234.133 122.4 239.067ZM159.6 236.4C166.133 236.267 166.933 236.667 172.667 242.267C178.667 248.4 181.333 253.6 175.6 248.267C173.067 245.867 170.933 245.333 163.6 245.333C155.6 245.333 154.267 244.933 150 241.2C144.4 236.267 144 234.267 149.067 235.6C151.067 236.133 155.733 236.4 159.6 236.4ZM242.667 246.667C242.667 248.933 241.733 249.333 236.8 249.333C232.133 249.333 230.8 248.8 230.267 246.667C229.6 244.267 230.267 244 236.133 244C241.733 244 242.667 244.4 242.667 246.667ZM282.667 248C282.667 250.133 281.733 250.667 278.667 250.667C275.6 250.667 274.667 250.133 274.667 248C274.667 245.867 275.6 245.333 278.667 245.333C281.733 245.333 282.667 245.867 282.667 248ZM274.133 253.6C274.667 254.533 274.267 255.467 273.2 255.733C269.2 257.067 261.333 266.4 261.333 269.867C261.333 274 260.133 274.267 256 270.667L252.933 268L260.8 260C268.533 252.267 272.267 250.4 274.133 253.6ZM67.7333 257.6C68.1333 259.6 67.2 260 63.4667 260C58.9333 260 57.2 258 59.6 255.467C61.3333 253.733 67.3333 255.333 67.7333 257.6ZM326 260.4C328.667 264.267 328.533 268.933 325.733 271.333C324.4 272.4 320.133 276.133 316.4 279.467L309.333 285.733V298.533V311.333L304 315.6L298.8 320H274.133H249.333V336C249.333 344.8 248.933 352 248.4 352C247.733 352 246.133 352.4 244.667 352.8C242 353.467 242 352.933 242.4 324.8C242.8 297.467 242.667 296.133 240.267 295.333C238.8 294.933 236.533 292.533 235.333 289.867C229.2 276.933 244.667 265.867 254.8 275.867C260.533 281.6 260.267 288.267 254 294.133C249.867 298 249.333 299.2 249.333 305.2V312H275.333H301.333V297.6V283.2L306.667 278C311.467 273.333 311.867 272.4 311.2 267.733C309.6 257.867 320.533 252.533 326 260.4ZM206.667 260.667C206.667 261.733 207.6 262.667 208.667 262.667C209.733 262.667 210.667 263.6 210.667 264.667C210.667 265.733 209.467 266.667 208 266.667C206.267 266.667 205.6 267.333 206.133 268.667C206.667 269.867 206.133 270.667 204.8 270.667C203.6 270.667 202.667 269.733 202.667 268.667C202.667 267.6 201.467 266.667 200 266.667C198.533 266.667 197.333 266 197.333 265.2C197.333 264.4 198.533 263.467 200 263.067C201.467 262.667 202.667 261.467 202.667 260.533C202.667 259.467 203.6 258.667 204.667 258.667C205.733 258.667 206.667 259.6 206.667 260.667ZM130.133 266C133.333 267.333 135.333 269.467 136.8 272.667C139.2 278.533 138.133 283.067 133.2 287.2L129.333 290.533V319.333V348.133L125.333 346L121.333 343.867V316.667C121.333 290.667 121.2 289.467 118.667 288.667C115.467 287.6 112 281.467 112 276.933C112 271.6 118.933 264.533 124.4 264.133C124.933 264 127.467 264.933 130.133 266ZM152 264.533C152 264.8 150 267.067 147.6 269.6L143.2 274.267L140.267 269.2L137.2 264H144.667C148.667 264 152 264.267 152 264.533ZM77.0667 269.333C78.6667 270.933 80 272.8 80 273.6C80 274.533 82.9333 274.8 89.3333 274.133L98.6667 273.333V286V298.667H103.333H108V317.333C108 327.6 107.733 336 107.333 336C106.933 336 105.067 335.067 103.333 333.867C100.133 331.867 100 331.067 100 319.2V306.667H86.9333C74.1333 306.667 73.7333 306.533 70 302.667L66.1333 298.667H78.8H91.4667L91.2 290.267L91.0667 282L86.2667 281.6C82.6667 281.333 80.8 282 78.1333 284.533C71.4667 291.333 60 286.533 60 277.067C60 268.533 70.9333 263.6 77.0667 269.333ZM234.667 270.133C234.667 271.867 231.867 276 230.667 276C228.8 276 229.067 272.8 230.933 270.933C232.667 269.2 234.667 268.8 234.667 270.133ZM159.2 314.267C159.333 342.133 158.8 357.333 158 357.333C157.333 357.333 155.333 356.933 153.733 356.533L150.667 355.733V317.467C150.667 296.4 150.133 278.667 149.467 277.867C148.8 277.2 148.8 275.333 149.467 273.6C150.4 271.067 151.467 270.533 154.8 270.933L159.067 271.333L159.2 314.267ZM211.867 280.667V289.333H205.333H198.667V281.2C198.667 274 198.933 273.2 201.2 274C202.533 274.4 205.067 274.133 206.8 273.467C208.533 272.8 210.4 272.133 210.933 272.133C211.333 272 211.733 275.867 211.867 280.667ZM146.267 285.333C146.933 288.933 145.333 293.333 143.333 293.333C139.467 293.333 136.667 300 137.067 308.533C137.333 316.133 137.733 316.933 142.267 320.933C146.533 324.533 146.933 325.467 145.867 328.133C145.067 329.733 143.333 331.2 141.867 331.333C140.533 331.6 138.267 332.133 137.067 332.667C134.8 333.6 134.667 332.133 134.667 313.733V293.867L138.667 288.533C140.8 285.733 142.667 282.133 142.667 280.667C142.8 278 142.8 278 144.267 280.667C145.2 282.133 146.133 284.267 146.267 285.333ZM181.333 286C181.333 289.333 180.8 292 180 292C178.533 292 178.267 287.6 179.467 282.933C180.8 278.4 181.333 279.333 181.333 286ZM268.667 285.867C271.067 287.6 271.067 287.867 266.933 292C261.867 296.933 261.733 298.4 265.467 303.2L268.133 306.667H262.133C258.8 306.667 256 306.4 256 306.133C256 305.867 255.733 304.667 255.333 303.733C254.933 302.667 256.4 299.6 258.533 296.8C260.667 294.133 262.933 290.133 263.333 287.867C264.267 283.467 265.067 283.2 268.667 285.867ZM85.3333 290.533C85.3333 293.6 82.2667 294.933 78.4 293.467L75.6 292.4L78.8 290.267C82.9333 287.333 85.3333 287.467 85.3333 290.533ZM234.133 297.2C238.533 304 238.267 310 233.333 310C230.133 310 230 309.6 229.6 300.933C229.333 296 229.467 292 229.867 292C230.267 292 232.133 294.4 234.133 297.2ZM275.467 294C274.933 295.333 275.6 296 277.333 296C278.8 296 280 296.933 280 298C280 299.067 279.2 300 278.133 300C277.2 300 276 301.2 275.6 302.667C275.2 304.133 274.267 305.333 273.467 305.333C272.667 305.333 272 304.133 272 302.667C272 300.933 271.067 300 269.333 300C267.867 300 266.667 299.067 266.667 298C266.667 296.8 267.867 296 269.467 296C271.467 296 272 295.333 271.467 294C270.933 292.667 271.6 292 273.467 292C275.467 292 276 292.667 275.467 294ZM211.6 296.667C211.6 298.133 210 298.667 205.067 298.667C200.267 298.667 198.667 298.133 198.667 296.667C198.667 295.2 200.267 294.667 205.067 294.667C210 294.667 211.6 295.2 211.6 296.667ZM146.667 307.333C146.667 316.4 146.4 317.333 144 317.333C141.6 317.333 141.333 316.4 141.333 307.333C141.333 298.267 141.6 297.333 144 297.333C146.4 297.333 146.667 298.267 146.667 307.333ZM211.2 306.933C212.267 310.933 212.267 321.867 211.2 324.533C210.533 326.4 209.867 326.267 206.667 323.6C204.667 322 202.133 320 200.933 319.333C199.6 318.533 198.8 315.867 198.667 312.667C198.267 304 198.267 304 204.533 304C209.467 304 210.533 304.533 211.2 306.933ZM236.533 334.133C236.933 335.333 237.333 339.733 237.333 344.133C237.333 352.267 240.133 357.333 244.667 357.333C252.133 357.333 239.333 362.533 226.933 364.533L222.4 365.333L225.867 361.2C229.067 357.467 229.333 356.133 229.333 344.533C229.333 332.267 229.333 332 232.533 332C234.267 332 236.133 332.933 236.533 334.133ZM145.333 338.133C145.333 339.333 143.867 340 141.333 340C136.8 340 136.4 337.2 140.667 335.867C144 334.933 145.333 335.6 145.333 338.133ZM187.2 356.4C187.733 358.667 189.6 362.267 191.6 364.267L195.2 368L186.533 367.867C181.867 367.733 176.667 367.333 174.933 366.8L171.733 366L175.2 362.8C178.133 360 178.667 358.4 178.667 352.133V344.8L182.533 348.533C184.667 350.533 186.8 354.133 187.2 356.4ZM212 352.933C212 357.467 212.8 360 214.933 362.267C216.533 364 217.467 365.6 217.067 366C216.667 366.4 211.867 367.2 206.533 367.6L196.667 368.4L200.4 364.4C202.4 362.267 204 359.467 204 358.133C204 354.4 208.667 346.8 211.067 346.667C211.6 346.667 212 349.467 212 352.933ZM164.667 362.667C167.067 365.333 166.933 365.333 163.2 365.333C161.067 365.333 158.533 364.8 157.467 364.133C156 363.2 156.133 362.667 158.133 361.467C161.6 359.6 161.867 359.6 164.667 362.667Z" fill="black"/>
<path d="M190.667 40.6666C190.8 54.1333 190.933 55.0666 192.8 52.6666C195.333 49.4666 194.933 30.3999 192.267 27.7333C191.067 26.5333 190.667 29.0666 190.667 40.6666Z" fill="black"/>
<path d="M128 97.7333C128 101.467 150.133 140 152.4 140C155.067 140 149.067 122.8 143.2 114C138.933 107.467 128 95.8667 128 97.7333Z" fill="black"/>
<path d="M320.133 145.867C318 148.533 319.733 152 323.333 152C325.067 152 326.8 151.067 327.2 149.867C328.133 147.333 325.867 144 323.333 144C322.4 144 320.933 144.8 320.133 145.867Z" fill="black"/>
<path d="M136.133 195.2C136.4 195.467 141.6 199.333 147.467 203.733C153.467 208.133 158.8 212.4 159.2 213.2C160.267 214.933 162.667 215.2 162.667 213.6C162.667 210.667 152 200.667 146.133 197.867C140.267 195.067 134.4 193.6 136.133 195.2Z" fill="black"/>
<path d="M191.6 332.934C190 334.534 190.667 339.6 192.667 341.334C197.333 345.2 204 337.867 199.733 333.6C198 331.867 193.067 331.467 191.6 332.934Z" fill="black"/>
<path d="M133.2 62.5334C128.4 67.3334 128.267 71.8667 132.667 77.0667C138.4 83.8667 145.067 83.7334 150.933 76.8C154.267 72.8 153.867 67.4667 149.867 62.8C145.2 57.2 138.667 57.0667 133.2 62.5334ZM146.667 65.3334C149.867 68.5334 150 71.6 147.067 74.9334C141.733 80.9334 131.733 75.0667 134.533 67.6C136.667 62.1334 142.4 61.0667 146.667 65.3334Z" fill="black"/>
<path d="M139.067 68.8001C138 71.6001 140.8 74.4001 142.8 72.4001C144.533 70.6667 143.467 66.6667 141.333 66.6667C140.533 66.6667 139.6 67.6001 139.067 68.8001Z" fill="black"/>
<path d="M79.6 91.7334C74.8 96.6668 75.0666 99.8668 80.5333 105.2L85.0666 109.6L89.2 106.8C96.9333 101.2 97.6 95.8668 91.0666 90.6668C86.4 87.0668 83.8666 87.3334 79.6 91.7334ZM88 94.1334C88 95.2001 88.9333 96.0001 90 96.0001C91.0666 96.0001 92 96.9334 92 98.0001C92 99.0668 91.0666 100 90 100C88.9333 100 88 101.2 88 102.667C88 104.4 87.3333 105.067 86 104.533C84.9333 104 84 102.933 84 101.867C84 100.8 82.8 100 81.3333 100C79.8666 100 78.6666 99.0668 78.6666 98.0001C78.6666 96.9334 79.7333 96.0001 81.2 96.0001C82.6666 96.0001 84 94.8001 84.4 93.2001C85.2 90.1334 88 90.9334 88 94.1334Z" fill="black"/>
<path d="M54.9334 150.133C51.0667 152.8 51.2 156.533 55.4667 159.867C58.9334 162.667 61.6 162.4 65.7334 158.933C68.6667 156.267 68.6667 154 65.3334 150.667C62.1334 147.467 58.9334 147.333 54.9334 150.133ZM64 154.667C64 156.8 63.0667 157.333 60 157.333C56.9334 157.333 56 156.8 56 154.667C56 152.533 56.9334 152 60 152C63.0667 152 64 152.533 64 154.667Z" fill="black"/>
<path d="M240.533 58.3999C236 59.0665 231.467 64.7999 231.467 69.8665C231.467 81.1999 246.4 85.9999 252.533 76.6665C258.133 68.1332 250.533 56.6665 240.533 58.3999ZM248.267 64.9332C251.2 67.5999 251.333 71.7332 248.4 74.9332C244 79.7332 236 76.6665 236 69.9999C236 63.4665 243.333 60.3999 248.267 64.9332Z" fill="black"/>
<path d="M240.4 68.7998C239.333 71.4665 242.667 73.5998 244.933 71.7331C246.267 70.6665 246.267 69.8665 245.2 68.5331C243.2 66.1331 241.467 66.1331 240.4 68.7998Z" fill="black"/>
<path d="M288.8 92.1331C286.933 94.3998 285.333 96.7998 285.333 97.5998C285.333 98.3998 287.733 101.2 290.533 103.866C295.467 108.4 295.733 108.933 294.133 112.666C293.333 114.933 292.667 117.466 292.8 118.266C292.933 119.2 293.067 120.533 293.2 121.333C293.467 123.6 300 129.333 303.2 130.133C307.867 131.2 314.533 127.2 316.8 121.866C318.533 117.866 318.533 116.8 316.667 113.333C314.133 108.533 309.733 105.333 305.6 105.333C303.067 105.333 302.533 104.8 303.333 102.933C305.6 97.7331 305.467 95.0664 302.667 91.5998C298.667 86.5331 293.333 86.7998 288.8 92.1331ZM297.6 93.3331C297.467 94.1331 298.533 95.1998 300 95.5998C303.467 96.5331 303.467 98.6664 300 98.6664C298.133 98.6664 297.333 99.4664 297.6 100.933C297.867 102.4 297.2 103.333 296 103.333C294.8 103.333 294.133 102.4 294.4 100.8C294.8 98.7998 294.267 98.3998 292.133 99.0664C290 99.5998 289.333 99.0664 289.333 97.3331C289.333 95.5998 290 95.0664 292 95.5998C294.133 96.1331 294.667 95.5998 294.667 93.3331C294.667 91.5998 295.333 90.6664 296.4 91.0664C297.2 91.3331 297.867 92.3998 297.6 93.3331ZM308.4 110.8C312 112.8 313.333 114.533 313.333 117.866C313.333 124.266 304.8 127.6 299.733 123.066C294.8 118.666 297.733 111.333 305.067 109.466C305.333 109.333 306.8 110 308.4 110.8Z" fill="black"/>
<path d="M303.067 116.8C302 119.6 304.8 122.4 306.8 120.4C308.533 118.667 307.467 114.667 305.333 114.667C304.533 114.667 303.6 115.6 303.067 116.8Z" fill="black"/>
<path d="M276.267 109.733C270.667 115.733 273.333 132 280 132C287.333 132 290.667 116 284.667 109.867C280.667 105.867 279.867 105.867 276.267 109.733ZM282.667 119.333C282.667 127.067 282.4 128 280.133 128C277.733 128 277.6 127.2 278 119.6C278.533 109.733 278.267 110.667 280.667 110.667C282.267 110.667 282.667 112.533 282.667 119.333Z" fill="black"/>
<path d="M329.067 241.6C325.6 244.533 325.333 247.6 328.533 250.533C332.133 254 334.933 254.133 337.733 250.933C340.533 247.867 340.667 244.8 337.867 242.133C335.333 239.6 331.867 239.467 329.067 241.6ZM336 246.667C336 248.4 335.067 249.333 333.6 249.333C330.4 249.333 329.333 248.267 330.267 245.867C331.333 242.933 336 243.6 336 246.667Z" fill="black"/>
<path d="M268.933 331.733C266 334.933 266.133 336.4 269.067 339.067C272.667 342.4 277.067 341.867 278.8 338.133C282 331.333 274 326.133 268.933 331.733ZM276.8 335.333C276.667 336.533 276.133 337.333 275.6 337.333C275.067 337.333 273.733 337.333 272.667 337.333C271.6 337.333 270.667 336.4 270.667 335.333C270.667 334.133 271.867 333.333 273.867 333.333C276 333.333 276.933 334 276.8 335.333Z" fill="black"/>
<path d="M80.8 127.333C77.4667 130.667 76.9334 134.533 79.2 138C83.6 144.8 94.6667 141.333 94.6667 133.333C94.6667 126.533 85.6 122.667 80.8 127.333Z" fill="black"/>
<path d="M52.4 238.133C52 239.2 52.2666 240.8 53.0666 241.6C55.2 243.733 58.6666 241.867 58.6666 238.667C58.6666 235.467 53.6 234.933 52.4 238.133Z" fill="black"/>
<path d="M102.933 162.133C97.0667 166.133 100.533 173.467 108.4 173.733C113.2 173.867 118.667 170.533 118.667 167.333C118.667 164.4 113.2 160 109.6 160C107.6 160 104.533 160.933 102.933 162.133ZM114.667 166.933C114.667 168.8 113.6 169.333 109.333 169.333C105.067 169.333 104 168.8 104 166.933C104 165.067 105.067 164.667 109.333 164.667C113.6 164.667 114.667 165.067 114.667 166.933Z" fill="black"/>
<path d="M322.267 176.933C320.8 178.4 321.2 184.667 322.933 186.4C323.867 187.333 325.733 188 327.333 188C328.933 188 330.8 187.333 331.733 186.4C332.667 185.467 333.333 183.6 333.333 182C333.333 180.4 332.667 178.533 331.733 177.6C330 175.867 323.733 175.467 322.267 176.933Z" fill="black"/>
<path d="M55.0666 176.933C53.0666 177.733 52.8 183.467 54.6666 184.667C59.0666 187.333 63.3333 181.2 59.7333 177.6C58 175.867 57.6 175.867 55.0666 176.933Z" fill="black"/>
<path d="M44.8 206.133C43.6 207.2 42.6666 208.667 42.6666 209.333C42.6666 210.533 46.4 214.667 47.4666 214.667C49.8666 214.667 53.3333 211.467 53.3333 209.333C53.3333 207.867 52.1333 206.133 50.8 205.333C47.4666 203.6 47.2 203.6 44.8 206.133Z" fill="black"/>
<path d="M331.067 215.467C330 218.4 332.4 222 335.333 222C336.667 222 338.267 221.067 339.067 219.867C341.067 216.667 339.2 213.333 335.333 213.333C333.333 213.333 331.6 214.267 331.067 215.467Z" fill="black"/>
<path d="M273.467 269.733C271.067 272.8 273.2 276.267 277.2 275.733C279.867 275.467 280.667 274.667 280.667 272C280.667 268.133 276.133 266.667 273.467 269.733Z" fill="black"/>
<path d="M316.533 264.667C316 265.867 316.267 267.467 317.067 268.267C319.067 270.267 322.933 268.4 322.4 265.733C321.867 262.667 317.6 261.867 316.533 264.667Z" fill="black"/>
<path d="M241.867 281.867C240.267 286 241.867 288.667 245.867 288.667C250.667 288.667 253.333 285.2 250.8 282.133C248.533 279.467 242.8 279.333 241.867 281.867Z" fill="black"/>
<path d="M121.333 273.867C118.8 276.933 120.267 282 123.733 282.4C129.867 283.333 133.333 276.133 128.133 273.333C124.667 271.467 123.333 271.6 121.333 273.867Z" fill="black"/>
<path d="M67.2 275.333C66.1333 278.133 67.4666 281.333 69.7333 281.333C70.8 281.333 72.4 280.4 73.3333 279.333C74.6666 277.733 74.6666 276.933 73.3333 275.333C72.4 274.267 70.8 273.333 69.7333 273.333C68.8 273.333 67.6 274.267 67.2 275.333Z" fill="black"/>
</g>
<defs>
<clipPath id="clip0_81_1677">
<rect width="400" height="408" fill="white"/>
</clipPath>
</defs>
</svg>
